<svg width="24" height="26" viewBox="0 0 24 26" xmlns="http://www.w3.org/2000/svg"><title>23892C57-2AC0-41E6-AF44-CE6A0168C1B8</title><path d="M0 .658V25.92h24v-2.105h-1a1.108 1.108 0 0 0 0-.132s-.465-3.844-1.5-8.29h.5V13.29h-1.031c-.026-.097-.036-.198-.063-.296-.732-2.682-1.675-5.384-2.906-7.5-1.23-2.115-2.862-3.782-5-3.782S9.23 3.378 8 5.493c-1.23 2.116-2.174 4.818-2.906 7.5-.027.098-.037.199-.063.296H4v2.106h.5C3.465 19.84 3 23.685 3 23.685a1.108 1.108 0 0 0 0 .13H2V.659H0zm13 3.158c1.112 0 2.215.964 3.281 2.796 1.066 1.832 1.983 4.393 2.688 6.974 1.357 4.967 1.955 9.86 2 10.23H5.03c.045-.37.643-5.263 2-10.23.705-2.581 1.622-5.142 2.688-6.974C10.785 4.78 11.888 3.816 13 3.816zm-5 9.473v2.106h2v-2.106H8zm4 0v2.106h2v-2.106h-2zm4 0v2.106h2v-2.106h-2z" fill-rule="nonzero" fill="#BBB"/></svg>