<svg width="22" height="23" viewBox="0 0 22 23" xmlns="http://www.w3.org/2000/svg"><title>2DB33209-05A1-40B4-A050-BD8FB05FACD2</title><path d="M5 .987v2.128a4.01 4.01 0 0 0-1.031.4l-1.5-1.48-1.406 1.388 1.5 1.48a3.896 3.896 0 0 0-.407 1.018H0v1.974h2.156c.078.273.183.554.313.802a25.512 25.512 0 0 1 1.875-.679A1.987 1.987 0 0 1 4 6.908c0-1.089.897-1.974 2-1.974s2 .885 2 1.974c0 .055-.026.1-.031.154A50.272 50.272 0 0 1 12 6.414v-.493H9.844a3.888 3.888 0 0 0-.438-.987l1.531-1.51-1.406-1.389-1.5 1.48A3.955 3.955 0 0 0 7 3.085V.987H5zm16 6.908c-7.939 0-13.06 1.009-16.219 2.035-1.579.513-2.664 1.013-3.375 1.419-.71.406-1.093.77-1.093.77L0 12.398v10.3h22V7.895h-1zM20 9.93v1.943c-8.916.294-15.175 4.348-18 6.63v-5.18c.105-.079.081-.062.406-.247.585-.334 1.574-.822 3.031-1.296C8.2 10.882 12.918 10.024 20 9.93zm0 3.917v2.035c-5.478.732-9.64 4.2-10.375 4.842H2.469c1.95-1.756 8.09-6.547 17.531-6.877zm0 4.04v2.837h-6.938c1.718-1.106 4.185-2.406 6.938-2.837z" fill="#4A4A4A" fill-rule="evenodd"/></svg>