<svg width="109" height="25" viewBox="0 0 109 25" xmlns="http://www.w3.org/2000/svg"><title>D967206D-14EA-4821-A6DC-81DCEE65A0DA</title><path d="M8.442 24.671c4.9 0 8.467-3.447 8.467-8.26 0-4.812-3.566-8.259-8.467-8.259C3.566 8.152 0 11.599 0 16.412c0 4.812 3.566 8.26 8.442 8.26zm0-3.016c-2.984 0-4.9-2.275-4.9-5.243 0-2.993 1.916-5.243 4.9-5.243 2.984 0 4.925 2.25 4.925 5.243 0 2.968-1.94 5.243-4.925 5.243zm21.81 2.729V16.22c0-2.25-1.237-3.687-3.809-3.687-1.916 0-3.348.91-4.1 1.796V12.82h-3.08v11.564h3.08v-7.781c.51-.694 1.456-1.365 2.669-1.365 1.31 0 2.16.551 2.16 2.155v6.99h3.08zm8.564.287c1.82 0 3.663-.55 4.828-1.604l-1.359-1.963c-.752.718-2.135 1.149-3.13 1.149-1.989 0-3.178-1.22-3.372-2.681h8.71v-.67c0-3.783-2.378-6.369-5.871-6.369-3.566 0-6.065 2.705-6.065 6.057 0 3.71 2.693 6.081 6.259 6.081zm2.693-7.158h-5.774c.145-1.15.97-2.562 2.887-2.562 2.038 0 2.814 1.46 2.887 2.562zm11.038 7.158c4.367 0 6.477-2.202 6.477-5.123 0-5.961-9.291-4.262-9.291-6.8 0-.957.825-1.603 2.304-1.603 1.65 0 3.397.55 4.707 1.747l1.916-2.49c-1.6-1.46-3.736-2.226-6.307-2.226-3.809 0-6.138 2.202-6.138 4.86 0 6.009 9.316 4.07 9.316 6.895 0 .91-.922 1.771-2.814 1.771a7.139 7.139 0 0 1-5.143-2.154l-1.868 2.585c1.504 1.509 3.736 2.538 6.84 2.538zm14.168 0c3.881 0 6.21-2.777 6.21-6.08 0-3.28-2.329-6.058-6.21-6.058-3.858 0-6.187 2.777-6.187 6.057 0 3.304 2.33 6.081 6.187 6.081zm0-2.705c-1.917 0-2.984-1.556-2.984-3.376 0-1.795 1.067-3.352 2.984-3.352 1.916 0 3.008 1.557 3.008 3.352 0 1.82-1.092 3.376-3.008 3.376zm10.019-10.39a1.83 1.83 0 0 0 1.844-1.82c0-1.005-.825-1.796-1.844-1.796-.995 0-1.844.79-1.844 1.796s.85 1.82 1.844 1.82zm1.553 12.808V12.82h-3.081v11.564h3.08zm6.137 0h-3.08V8.415h3.08v15.969zM96.867 0h1.246l.273.115c.746.36 3.376.78 5.766 1.807 1.195.514 2.401 1.216 3.312 2.307.91 1.091 1.48 2.574 1.48 4.345 0 1.904-.853 3.256-1.714 4.036a5.505 5.505 0 0 1-1.169.808c.38 1.818.39 3.584.39 5.036h-2.494c0-3.374.194-6.901-3.623-9.88l1.52-1.961c1.7 1.327 2.792 2.815 3.467 4.344.074-.055.115-.081.195-.154.464-.42.935-1.012.935-2.23 0-1.273-.37-2.09-.935-2.768-.566-.677-1.366-1.235-2.338-1.653-1.649-.709-3.447-1.029-4.987-1.576-.475.761-1.714 2.925-1.714 6.536 0 2.346.648 3.348 1.208 3.844.56.497 1.221.577 1.48.577.441 0 1.336-.46 2.455-.923l.935 2.269c-.861.356-1.9 1.115-3.39 1.115-.683 0-1.993-.2-3.155-1.23-1.163-1.032-2.026-2.84-2.026-5.652C93.984 3.997 96.477.5 96.477.5l.39-.5z" fill="#00F0A7" fill-rule="evenodd"/></svg>