<svg width="26" height="23" viewBox="0 0 26 23" xmlns="http://www.w3.org/2000/svg"><title>F0581ABB-9D1F-479C-8AA8-DE02A26ECA67</title><path d="M4 .974v7.154c-1.347.3-2.583.871-3.625 1.696l1.25 1.542A7.004 7.004 0 0 1 6 9.856c3.877 0 7 3.08 7 6.907H17.563A3.834 3.834 0 0 0 17 18.737c0 2.168 1.803 3.947 4 3.947s4-1.779 4-3.947c0-1.015-.418-1.92-1.063-2.621l2-4.904.063-.185V8.868h-5v-2.96a.978.978 0 0 1 1-.987V2.947c-1.645 0-3 1.338-3 2.96v2.961h-3.313l-2.75-7.247-.25-.647H4zm2 1.973h5.313l2.75 7.247.25.648h9.593l-1.593 3.947H14.75c-.916-3.944-4.481-6.907-8.75-6.907V2.947zm0 7.895c-3.302 0-6 2.663-6 5.921 0 3.259 2.698 5.921 6 5.921s6-2.662 6-5.92c0-3.26-2.698-5.922-6-5.922zm0 1.974c2.221 0 4 1.755 4 3.947s-1.779 3.948-4 3.948-4-1.756-4-3.948 1.779-3.947 4-3.947zm0 1.973c-1.105 0-2 .884-2 1.974 0 1.09.895 1.974 2 1.974s2-.884 2-1.974c0-1.09-.895-1.974-2-1.974zm15 1.974c1.116 0 2 .872 2 1.974 0 1.102-.884 1.974-2 1.974s-2-.872-2-1.974c0-1.102.884-1.974 2-1.974z" fill="#BCBCBC" fill-rule="evenodd"/></svg>