<svg width="25" height="24" viewBox="0 0 25 24" xmlns="http://www.w3.org/2000/svg"><title>9EAF9851-C381-4464-B66B-5C6FD4A565F3</title><path d="M2 0C.895 0 0 .884 0 1.974c0 .73.403 1.354 1 1.696v20.014h2V13.631c.868-.503 1.921-.717 3.219-.71 1.504.009 3.292.307 5.187.556 3.792.496 8.198.835 12.156-1.82l.563-.37-.156-.678-1-3.948-.25-.987-1 .278c-4.081 1.125-7.061.556-10.063-.278C8.945 4.921 6.24 3.914 3 3.917V3.67a1.95 1.95 0 0 0 1-1.696C4 .884 3.105 0 2 0zm4.031 6.322c1.389.248 2.762.618 4.188 1.018l-.375 3.916c-1.223-.163-2.43-.302-3.594-.308-.147-.001-.292.024-.438.03l.22-4.656zm8.844 2.035a18.83 18.83 0 0 0 3.906.062l.313 2.991c-1.475.367-2.992.45-4.532.37l.313-3.423z" fill="#BCBCBC" fill-rule="evenodd"/></svg>