<svg width="24" height="22" viewBox="0 0 24 22" xmlns="http://www.w3.org/2000/svg"><title>721FEE8B-1122-4C75-9156-C8B0C2E58D77</title><path d="M6-.053L2.719 3.185 1.438 1.921 0 3.34l2 1.973.719.679.719-.679 4-3.947L6-.053zm4.719 1.697v1.973h13V1.644h-13zM6 7.842L2.719 11.08 1.438 9.816 0 11.234l2 1.974.719.679.719-.679 4-3.947L6 7.842zm4.719 1.696v1.974h13V9.538h-13zM6 15.737l-3.281 3.238-1.281-1.264L0 19.129l2 1.974.719.678.719-.678 4-3.948L6 15.737zm4.719 1.696v1.974h13v-1.974h-13z" fill="#BCBCBC" fill-rule="evenodd"/></svg>